<svg width="194" height="194" viewBox="0 0 194 194" fill="none" xmlns="http://www.w3.org/2000/svg">
<circle cx="97" cy="97" r="97" fill="#BE9F31"/>
<path d="M78.1101 133.12C78.5201 133.85 78.9301 134.54 79.2901 135.26C80.2301 137.09 79.6901 139.1 77.9301 140.17C76.5101 141.03 75.0601 141.86 73.5801 142.63C71.7701 143.57 69.7001 143 68.6801 141.22C64.5601 133.99 60.4601 126.75 56.3901 119.49C55.3401 117.61 55.9501 115.58 57.8301 114.47C59.1801 113.67 60.5501 112.89 61.9301 112.14C63.8101 111.12 65.8701 111.7 66.9901 113.52C67.3101 114.04 67.6101 114.58 67.9501 115.16C68.3001 114.98 68.5901 114.83 68.8801 114.66C72.4601 112.59 76.0201 110.5 79.6101 108.47C82.0101 107.12 84.5401 106.14 87.3601 106.56C88.5701 106.74 89.7601 107.11 90.9101 107.53C95.2901 109.1 99.6601 110.65 104.23 111.59C107.31 112.23 109.2 115.7 108.31 118.72C108.22 119.03 108.11 119.33 107.93 119.88C108.76 119.47 109.4 119.2 110 118.85C114.77 116.08 119.54 113.3 124.31 110.52C126.51 109.24 128.77 108.16 131.36 107.94C134.37 107.69 136.9 109.22 137.77 111.87C138.71 114.74 137.69 117.61 135.14 119.18C126.38 124.59 117.6 129.98 108.84 135.39C105.78 137.28 102.56 137.75 99.0901 136.8C93.4201 135.25 87.7201 133.8 82.0701 132.22C80.8701 131.89 79.8801 131.82 78.9001 132.64C78.6701 132.83 78.3801 132.95 78.0901 133.12H78.1101ZM76.6101 130.48C77.4301 130.01 78.1901 129.62 78.9101 129.15C79.6401 128.67 80.3501 128.64 81.1901 128.86C87.3401 130.53 93.5001 132.12 99.6401 133.82C102.47 134.61 105.02 134.25 107.5 132.69C112.41 129.61 117.37 126.6 122.31 123.56C126.12 121.22 129.93 118.87 133.73 116.51C134.88 115.8 135.33 114.49 134.99 113.02C134.74 111.92 133.8 111.05 132.64 110.97C131.97 110.92 131.24 110.89 130.63 111.11C129.02 111.69 127.37 112.27 125.89 113.11C121.11 115.8 116.39 118.6 111.65 121.38C109.34 122.73 106.9 123.44 104.22 123.01C102.55 122.74 100.87 122.47 99.2301 122.06C96.7501 121.45 94.3001 120.73 91.8401 120.03C90.8801 119.76 90.4701 118.98 90.7201 118.11C90.9501 117.34 91.7501 116.93 92.6601 117.15C92.9301 117.21 93.1901 117.31 93.4601 117.38C96.2601 118.13 99.0401 118.9 101.85 119.6C103.7 120.06 105.1 119.28 105.48 117.68C105.83 116.17 104.82 114.74 103.02 114.38C98.4701 113.47 94.1501 111.85 89.7901 110.32C88.7201 109.95 87.6101 109.61 86.5001 109.5C84.5201 109.3 82.7501 110.13 81.0801 111.08C77.3301 113.21 73.6001 115.39 69.8601 117.55C69.7401 117.62 69.6301 117.73 69.4601 117.86C71.8501 122.08 74.2101 126.25 76.6001 130.48H76.6101ZM63.8901 114.56C63.5201 114.73 63.3201 114.8 63.1301 114.9C62.0001 115.53 60.8801 116.17 59.7501 116.81C58.8201 117.34 58.7501 117.57 59.2701 118.49C60.3601 120.42 61.4501 122.35 62.5501 124.28C65.3701 129.27 68.1901 134.25 71.0201 139.24C71.5701 140.21 71.7001 140.24 72.6801 139.7C73.7301 139.12 74.7701 138.52 75.8201 137.92C76.8601 137.33 76.9201 137.16 76.3301 136.12C74.6401 133.12 72.9401 130.11 71.2401 127.11C69.0401 123.22 66.8401 119.34 64.6301 115.46C64.4401 115.12 64.1301 114.85 63.8901 114.56Z" fill="white"/>
<path d="M92.0101 87.5198C91.6501 87.3498 91.3201 87.1898 90.9801 87.0498C88.1401 85.8298 86.7001 83.3998 87.2801 80.3598C87.7301 77.9998 87.4201 75.9198 86.2301 73.8098C84.4001 70.5498 84.8201 68.1498 87.6601 65.7498C89.5501 64.1498 90.4801 62.2198 90.9301 59.8598C91.5001 56.8298 93.4401 55.0398 96.4601 54.9998C99.2901 54.9598 101.62 54.0998 103.78 52.2798C105.84 50.5498 108.63 50.5298 110.7 52.2898C112.92 54.1798 115.34 54.9898 118.22 54.9998C120.72 55.0098 122.63 56.6798 123.37 59.0698C123.42 59.2498 123.5 59.4198 123.52 59.5998C123.8 62.3298 125.13 64.3798 127.25 66.1298C129.49 67.9898 129.84 70.6398 128.56 73.2598C128.49 73.3998 128.44 73.5498 128.35 73.6698C127.03 75.6798 126.71 77.7898 127.16 80.1898C127.75 83.3098 126.51 85.6798 123.5 87.0798C124.41 89.1898 125.3 91.2798 126.19 93.3598C126.74 94.6298 127.3 95.8998 127.83 97.1798C128.45 98.6898 127.64 99.7298 126.03 99.4498C124.36 99.1598 122.7 98.8198 121.05 98.4298C120.47 98.2898 120.16 98.3998 119.85 98.9198C119.02 100.33 118.12 101.7 117.28 103.1C116.89 103.75 116.42 104.28 115.61 104.2C114.81 104.12 114.44 103.51 114.14 102.82C113.01 100.15 111.88 97.4898 110.69 94.8498C110.52 94.4698 110.08 94.0698 109.69 93.9498C108.56 93.5998 107.44 93.0698 106.18 93.4998C105.69 93.6698 105.36 93.8698 105.13 94.3798C103.49 97.9698 101.81 101.53 100.16 105.12C99.8401 105.81 99.4501 106.39 98.6401 106.42C97.8201 106.45 97.3901 105.9 97.0201 105.24C96.2001 103.79 95.3401 102.36 94.5201 100.91C94.2901 100.5 94.0701 100.38 93.5701 100.48C91.8801 100.82 90.1701 101.04 88.4801 101.38C87.7601 101.52 87.0601 101.46 86.7701 100.85C86.5301 100.35 86.4801 99.5498 86.7001 99.0498C88.2601 95.5298 89.9201 92.0498 91.5401 88.5598C91.7001 88.2298 91.8401 87.8898 92.0101 87.5198ZM90.1601 81.6198C90.2401 82.8398 90.8301 83.8298 92.0301 84.1998C95.2701 85.2198 97.6501 87.1798 99.1801 90.2098C99.2501 90.3498 99.3501 90.4698 99.4501 90.5898C100.15 91.3998 101.02 91.7698 102.08 91.5498C102.53 91.4598 102.99 91.3498 103.41 91.1798C105.96 90.1598 108.51 90.1598 111.06 91.1798C111.34 91.2898 111.64 91.3898 111.94 91.4698C113.4 91.8498 114.45 91.4498 115.3 90.2098C115.63 89.7298 115.97 89.2398 116.26 88.7398C117.3 86.9298 118.76 85.6398 120.75 84.9398C121.24 84.7698 121.71 84.5298 122.19 84.3198C123.93 83.5598 124.58 82.4998 124.2 80.6598C123.62 77.8198 123.96 75.1998 125.45 72.6598C126.81 70.3398 126.64 69.4698 124.61 67.7798C122.46 65.9898 121.15 63.8098 120.76 61.0598C120.72 60.7598 120.64 60.4598 120.56 60.1598C120.19 58.7498 119.22 58.0098 117.75 57.9398C116.61 57.8798 115.47 57.8198 114.33 57.6998C112.42 57.4898 111.04 56.2398 109.58 55.1598C107.64 53.7198 106.72 53.6098 104.91 55.1798C102.61 57.1798 99.9901 57.9798 97.0001 57.9498C95.1001 57.9298 94.2301 58.6698 93.8401 60.5198C93.3001 63.0498 92.5701 65.3998 90.4801 67.2198C87.6001 69.7398 87.6001 70.0298 89.3801 73.4098C90.4201 75.3798 90.8001 77.3898 90.3801 79.5698C90.2501 80.2298 90.2201 80.9198 90.1501 81.6298L90.1601 81.6198ZM94.7001 88.9198C93.2501 92.0398 91.9001 94.9398 90.5001 97.9598C91.8101 97.7298 92.9601 97.5398 94.1001 97.3298C95.4601 97.0698 95.8701 97.2498 96.5901 98.4698C97.1801 99.4898 97.7801 100.51 98.4501 101.66C99.5701 99.2498 100.62 96.9998 101.73 94.6198C97.8101 94.6898 96.5501 91.5598 94.7101 88.9098L94.7001 88.9198ZM113.88 94.5598C114.58 96.1898 115.26 97.7598 116 99.4598C116.76 98.2398 117.45 97.1798 118.09 96.0898C118.56 95.2898 119.18 94.9898 120.1 95.1998C121.35 95.4798 122.61 95.6998 124.04 95.9898C122.9 93.3398 121.82 90.8398 120.7 88.2398C120.36 88.5198 120.05 88.6898 119.86 88.9398C119.27 89.7298 118.68 90.5198 118.17 91.3598C117.19 92.9898 115.86 94.1498 113.87 94.5598H113.88Z" fill="white"/>
<path d="M63.1202 120.44C62.2702 120.45 61.6502 119.86 61.6202 119.03C61.5902 118.15 62.2102 117.48 63.0702 117.46C63.9202 117.45 64.5902 118.11 64.5802 118.98C64.5802 119.82 63.9602 120.43 63.1202 120.44Z" fill="white"/>
<path d="M93.6401 72.8398C93.6501 65.2698 99.7302 59.2398 107.33 59.2598C114.76 59.2698 120.85 65.3898 120.88 72.8398C120.91 80.3298 114.71 86.5098 107.2 86.4998C99.7202 86.4898 93.6301 80.3598 93.6401 72.8498V72.8398ZM117.82 72.8598C117.82 67.0098 113.07 62.2298 107.24 62.2398C101.42 62.2398 96.6502 67.0298 96.6502 72.8698C96.6502 78.7098 101.42 83.4798 107.24 83.4798C113.09 83.4798 117.82 78.7298 117.82 72.8598Z" fill="white"/>
<path d="M104.51 75.0198C107.16 72.6198 109.72 70.2998 112.28 67.9798C112.46 67.8098 112.63 67.6298 112.83 67.4798C113.47 67.0098 114.34 67.0798 114.85 67.6198C115.4 68.1998 115.43 69.0898 114.81 69.6998C113.93 70.5698 113 71.3798 112.09 72.2098C110.06 74.0598 108.03 75.8998 105.99 77.7498C104.75 78.8698 104.17 78.8598 103.01 77.6998C101.94 76.6298 100.86 75.5698 99.81 74.4898C99.07 73.7298 99.01 72.8198 99.63 72.1998C100.28 71.5398 101.12 71.5798 101.91 72.3498C102.77 73.1898 103.59 74.0698 104.51 75.0098V75.0198Z" fill="white"/>
</svg>
