<svg width="194" height="194" viewBox="0 0 194 194" fill="none" xmlns="http://www.w3.org/2000/svg">
<circle cx="97" cy="97" r="97" fill="#BE9F31"/>
<path d="M103.41 108.64C106.89 108.64 110.24 108.64 113.58 108.64C113.7 108.64 113.82 108.61 114.02 108.58V107.44C114.02 96.45 114.02 85.47 114.02 74.48C114.02 72.68 114.44 72.27 116.26 72.27C119.89 72.27 123.52 72.27 127.16 72.27C128.7 72.27 129.19 72.76 129.19 74.32C129.19 85.34 129.19 96.36 129.19 107.38C129.19 107.76 129.19 108.13 129.19 108.61H141.26V111.63H50.4102V108.67H62.4602C62.4602 108.23 62.4602 107.89 62.4602 107.56C62.4602 103.52 62.4602 99.48 62.4602 95.44C62.4602 94.01 62.9702 93.5 64.4002 93.5C68.1602 93.5 71.9202 93.5 75.6802 93.5C77.1102 93.5 77.6302 94.02 77.6302 95.43C77.6302 99.79 77.6302 104.14 77.6302 108.58H88.2402V107.51C88.2402 100.03 88.2402 92.54 88.2402 85.06C88.2402 83.32 88.6802 82.89 90.4202 82.89C94.0802 82.89 97.7502 82.89 101.41 82.89C102.89 82.89 103.4 83.39 103.4 84.88C103.4 92.39 103.4 99.91 103.4 107.42V108.65L103.41 108.64ZM117.12 75.34V108.57H126.11V75.34H117.12ZM100.31 108.6V85.98H91.3202V108.6H100.31ZM65.5602 96.56V108.57H74.5402V96.56H65.5602Z" fill="white"/>
<path d="M70.0698 114.71H72.9698C73.6898 117.61 72.9698 119.87 70.6298 120.88C69.9698 121.17 69.8298 121.76 70.0798 122.4C70.7498 124.07 71.4398 125.72 72.1498 127.37C72.4198 128.01 72.9198 128.24 73.6198 128.01C75.6598 127.33 77.2998 127.9 78.6898 129.51C79.4498 130.39 80.3198 131.18 81.1798 131.97C82.5598 133.25 83.0898 134.77 82.4798 136.58C82.1798 137.49 82.4798 138.02 83.3298 138.36C84.8198 138.95 86.3098 139.56 87.7898 140.2C88.6398 140.57 89.2198 140.39 89.6498 139.54C90.4698 137.92 91.8198 137.16 93.6498 137.21C95.0398 137.24 96.4298 137.25 97.8198 137.21C99.6798 137.16 101.06 137.91 101.89 139.58C102.31 140.42 102.89 140.61 103.75 140.25C105.23 139.62 106.73 139.03 108.21 138.42C109.25 137.99 109.42 137.64 109.11 136.61C108.57 134.83 109 133.33 110.36 132.06C111.32 131.15 112.26 130.21 113.16 129.25C114.45 127.86 115.99 127.4 117.79 127.99C118.64 128.27 119.19 128.05 119.53 127.22C120.16 125.67 120.8 124.13 121.45 122.59C121.76 121.86 121.64 121.28 120.91 120.92C118.92 119.94 118.19 118.32 118.41 116.18C118.46 115.72 118.48 115.25 118.51 114.75H121.42C121.42 115.45 121.45 116.1 121.42 116.75C121.38 117.43 121.63 117.86 122.24 118.2C124.5 119.42 125.2 121.41 124.24 123.79C123.61 125.34 122.98 126.88 122.33 128.42C121.38 130.64 119.39 131.61 117.09 130.92C116.36 130.7 115.85 130.83 115.32 131.38C114.38 132.35 113.39 133.28 112.36 134.17C111.81 134.65 111.65 135.14 111.85 135.83C112.56 138.34 111.64 140.21 109.21 141.23C107.67 141.88 106.13 142.52 104.57 143.14C102.45 143.98 100.41 143.25 99.3498 141.24C98.9698 140.53 98.4998 140.24 97.6998 140.27C96.3798 140.32 95.0498 140.3 93.7198 140.27C93.0798 140.26 92.6698 140.5 92.3498 141.06C91.0398 143.36 89.1198 144 86.6598 143C85.1698 142.39 83.6798 141.79 82.1998 141.17C79.8998 140.2 78.9498 138.28 79.6198 135.89C79.8298 135.15 79.6398 134.64 79.0898 134.13C78.1398 133.25 77.2298 132.33 76.3598 131.38C75.8698 130.85 75.3798 130.69 74.6798 130.88C72.1998 131.58 70.2998 130.66 69.3098 128.32C68.6598 126.78 68.0198 125.24 67.3998 123.69C66.4898 121.41 67.1798 119.42 69.3498 118.24C70.0398 117.87 70.2798 117.38 70.1798 116.63C70.0898 116.02 70.0998 115.39 70.0598 114.7L70.0698 114.71Z" fill="white"/>
<path d="M126.17 64.5798C127.02 63.0598 127.82 61.6098 128.77 59.9098C105.14 69.3998 81.7501 78.7798 58.2601 88.2098C57.8801 87.2898 57.5101 86.4098 57.1001 85.4198C80.5601 76.0098 103.97 66.6198 127.65 57.1298C125.78 56.5698 124.17 56.0798 122.5 55.5798C122.81 54.5298 123.09 53.5798 123.38 52.5698C126.52 53.5398 129.59 54.4698 132.65 55.4498C133.6 55.7598 134.07 56.6498 133.62 57.4698C132.07 60.3498 130.44 63.1898 128.8 66.0998C127.9 65.5798 127.08 65.1198 126.16 64.5798H126.17Z" fill="white"/>
<path d="M79.0998 114.75H82.1398C82.3198 119.15 84.0298 122.81 87.5298 125.52C90.1798 127.57 93.2098 128.48 96.5498 128.33C102.56 128.05 109.14 123.34 109.55 114.75H112.5C112.35 120.12 110.33 124.58 106.06 127.82C100.56 131.99 94.5098 132.63 88.3398 129.55C82.3698 126.58 79.4698 121.47 79.0898 114.74L79.0998 114.75Z" fill="white"/>
</svg>
