<svg width="194" height="194" viewBox="0 0 194 194" fill="none" xmlns="http://www.w3.org/2000/svg">
<circle cx="97" cy="97" r="97" fill="#BE9F31"/>
<path d="M139.13 57.38C134.68 63.04 130.23 68.7 125.79 74.36C125.64 74.55 125.49 74.75 125.33 74.94C124.76 75.61 124.03 75.74 123.47 75.27C122.91 74.81 122.86 74.13 123.39 73.45C124.31 72.25 125.24 71.08 126.17 69.89C129.67 65.43 133.17 60.97 136.67 56.51C137.56 55.38 138.3 55.4 139.14 56.57V57.39L139.13 57.38Z" fill="white"/>
<path d="M139.13 89.1199C138.73 89.4299 138.36 89.7999 137.93 90.0499C136.39 90.9299 134.84 91.7899 133.29 92.6399C132.43 93.1099 131.75 92.9799 131.37 92.3099C130.99 91.6399 131.24 90.9799 132.08 90.4999C133.7 89.5899 135.32 88.6899 136.94 87.7899C137.99 87.2099 138.43 87.3099 139.14 88.2899V89.1099L139.13 89.1199Z" fill="white"/>
<path d="M79.8799 81.2602C79.8799 79.6902 79.8799 78.1302 79.8799 76.5802C79.8799 73.6402 81.4199 71.4002 83.9699 70.5902C86.5399 69.7702 89.0499 70.7002 90.7799 73.1002C90.8399 73.1902 90.9199 73.2602 90.9899 73.3402C94.5099 70.7702 97.0799 71.1502 100.33 74.6802C103.59 72.0202 107.69 72.8702 109.75 76.2402C111.23 75.0002 112.9 74.4102 114.84 74.7802C117.59 75.3102 119.6 77.5302 119.67 80.3402C119.75 83.4602 119.7 86.5902 119.68 89.7102C119.68 90.1402 119.66 90.6302 119.47 91.0002C118.7 92.4902 118.89 94.0802 118.88 95.6602C118.88 96.2902 118.89 96.9202 118.88 97.5502C118.85 98.4202 118.33 98.9902 117.6 98.9602C116.89 98.9302 116.43 98.4002 116.42 97.5502C116.41 96.6802 116.42 95.8102 116.42 94.8602C113.18 96.0302 110.6 95.2602 108.64 92.4602C106.04 94.6002 103.36 94.7102 100.52 92.7102C101.23 95.0802 100.7 97.0202 98.7399 98.5802C99.3999 99.3702 100.03 100.15 100.68 100.92C102.27 102.81 103.15 104.97 103.17 107.46C103.18 109.82 103.19 112.17 103.17 114.53C103.17 115.33 102.69 115.83 102.01 115.87C101.3 115.9 100.78 115.38 100.72 114.56C100.7 114.34 100.72 114.12 100.72 113.9C100.72 111.93 100.69 109.95 100.72 107.98C100.76 105.82 100.08 103.95 98.6599 102.33C97.9399 101.51 97.2599 100.65 96.6599 99.9402C95.1399 100.36 93.7399 100.86 92.3099 101.13C89.8899 101.59 87.5699 101.11 85.3599 100.07C83.8999 99.3802 82.4599 98.6402 81.0199 97.9102C80.1399 97.4602 79.8599 96.8302 80.2099 96.1402C80.5599 95.4502 81.2499 95.2902 82.1199 95.7202C83.4999 96.3902 84.8599 97.0902 86.2399 97.7702C89.2599 99.2402 92.2599 99.1902 95.2399 97.6702C95.7499 97.4102 96.2499 97.1202 96.7599 96.8602C97.6999 96.3802 98.3599 95.7202 98.3599 94.5802C98.3599 93.4502 97.7099 92.7902 96.7799 92.2902C92.8699 90.2002 88.9599 88.1002 85.0499 86.0002C84.1599 85.5202 83.2699 85.0302 82.3699 84.5602C79.6399 83.1602 76.6999 83.8302 74.7799 86.2202C74.5099 86.5502 74.0699 86.9002 73.6799 86.9402C73.3299 86.9802 72.7399 86.6802 72.6199 86.3902C72.4599 85.9802 72.4699 85.3202 72.6999 84.9702C74.1799 82.8102 76.2699 81.6402 78.8799 81.4002C79.1499 81.3702 79.4299 81.3702 79.6999 81.3502C79.7199 81.3502 79.7499 81.3302 79.8899 81.2602H79.8799ZM107.88 83.6702C107.88 82.1902 107.88 80.7102 107.88 79.2302C107.88 79.1802 107.88 79.1202 107.88 79.0702C107.84 77.0802 106.41 75.6002 104.49 75.5702C102.59 75.5502 101.05 77.0002 101.02 78.9902C100.97 82.0602 100.98 85.1302 101.02 88.2002C101.05 90.1902 102.56 91.6602 104.46 91.6602C106.41 91.6602 107.87 90.1602 107.89 88.1202C107.9 86.6402 107.89 85.1602 107.89 83.6802L107.88 83.6702ZM110.35 85.0402C110.35 86.4602 110.35 87.8902 110.35 89.3102C110.36 91.3602 111.8 92.8902 113.72 92.9102C115.7 92.9402 117.21 91.4302 117.23 89.3602C117.25 86.4602 117.25 83.5502 117.23 80.6502C117.21 78.6202 115.7 77.1102 113.78 77.1202C111.86 77.1202 110.38 78.6602 110.36 80.6802C110.35 82.1302 110.36 83.5802 110.36 85.0402H110.35ZM98.1099 90.2002C98.2599 89.4502 98.5099 88.8102 98.5199 88.1502C98.5599 84.6502 98.5599 81.1402 98.5299 77.6402C98.5199 75.7002 97.0599 74.2202 95.1999 74.1702C93.3199 74.1202 91.7399 75.5602 91.6999 77.5502C91.6399 80.4502 91.6699 83.3502 91.6999 86.2502C91.6999 86.4802 91.8499 86.8102 92.0299 86.9102C93.9899 87.9902 95.9599 89.0402 98.1199 90.1902L98.1099 90.2002ZM89.1499 85.3602C89.1499 82.0502 89.2299 78.8602 89.1199 75.6602C89.0599 73.9402 87.3799 72.7102 85.6099 72.7902C83.8899 72.8702 82.4399 74.2102 82.3799 75.9102C82.3199 77.7402 82.3499 79.5802 82.3599 81.4102C82.3599 81.5902 82.4699 81.8602 82.6099 81.9402C84.7499 83.0802 86.9099 84.2002 89.1499 85.3602Z" fill="white"/>
<path d="M112.68 130.71C112.68 128.63 112.63 126.54 112.71 124.46C112.73 123.75 112.92 122.97 113.28 122.36C116.52 116.84 116.46 116.92 116.43 110.42C116.42 108.04 116.43 105.65 116.43 103.27C116.43 102.28 116.86 101.76 117.65 101.76C118.43 101.76 118.89 102.3 118.89 103.27C118.89 106.94 118.91 110.61 118.89 114.29C118.87 116.73 118.25 119.04 116.86 121.04C115.5 123 115.01 125.05 115.12 127.43C115.28 130.74 115.16 134.06 115.16 137.38C115.16 138.34 114.58 138.92 113.78 138.81C113.1 138.72 112.71 138.2 112.7 137.3C112.7 135.11 112.7 132.92 112.7 130.72L112.68 130.71Z" fill="white"/>
<path d="M66.8999 100.11C66.8999 97.74 67.4599 95.5 68.4699 93.37C68.9499 92.36 69.4399 91.35 69.9299 90.34C70.3799 89.42 71.0499 89.11 71.7399 89.46C72.4199 89.81 72.5599 90.49 72.1599 91.38C71.3999 93.07 70.4499 94.71 69.9199 96.48C68.5599 101.09 69.6099 105.24 72.7699 108.85C74.3399 110.64 75.9199 112.42 77.4999 114.21C78.1699 114.98 78.1999 115.71 77.5899 116.22C76.9999 116.71 76.3199 116.59 75.6699 115.85C73.6799 113.56 71.5999 111.33 69.7399 108.93C67.7499 106.37 66.9199 103.34 66.8999 100.1V100.11Z" fill="white"/>
<path d="M71.5402 74.4098C71.2002 74.7898 70.9602 75.2998 70.6002 75.3998C70.2002 75.5098 69.6002 75.3998 69.2702 75.1398C68.7602 74.7498 68.4102 74.1498 68.0002 73.6398C63.8402 68.4098 59.6802 63.1798 55.5202 57.9498C55.4002 57.7998 55.2702 57.6598 55.1702 57.4998C54.7702 56.8798 54.8502 56.2398 55.3802 55.8098C55.8802 55.3998 56.6102 55.4398 57.0702 55.9798C57.8702 56.9198 58.6202 57.8898 59.3902 58.8598C63.1802 63.6198 66.9602 68.3798 70.7402 73.1398C71.0202 73.4898 71.2202 73.9098 71.5302 74.4198L71.5402 74.4098Z" fill="white"/>
<path d="M85.8599 130.94C85.8599 133.02 85.8599 135.1 85.8599 137.18C85.8599 138.25 85.4499 138.79 84.6599 138.8C83.8399 138.81 83.3999 138.25 83.3999 137.14C83.3999 133.28 83.3799 129.42 83.4099 125.56C83.4099 124.91 83.2599 124.42 82.8199 123.95C81.7399 122.79 80.7099 121.58 79.6599 120.39C78.9999 119.64 78.9599 118.97 79.5199 118.44C80.0999 117.89 80.8099 117.99 81.4999 118.76C82.7999 120.21 84.0999 121.65 85.3399 123.14C85.6399 123.5 85.8299 124.06 85.8399 124.54C85.8899 126.67 85.8599 128.81 85.8599 130.95V130.94Z" fill="white"/>
<path d="M76.66 55.23C76.82 55.36 77.25 55.54 77.47 55.87C79.51 58.98 81.52 62.11 83.52 65.25C83.96 65.94 83.78 66.67 83.17 67.04C82.58 67.4 81.91 67.25 81.47 66.57C79.44 63.45 77.42 60.32 75.43 57.18C74.85 56.27 75.4 55.23 76.67 55.23H76.66Z" fill="white"/>
<path d="M111.74 67.2298C110.66 67.2298 110.08 66.4098 110.34 65.6098C110.41 65.3798 110.56 65.1698 110.69 64.9598C112.58 62.0098 114.48 59.0698 116.38 56.1298C116.53 55.8998 116.69 55.5598 116.89 55.5198C117.35 55.4198 117.98 55.2898 118.3 55.5198C118.62 55.7398 118.66 56.3798 118.76 56.8498C118.79 56.9998 118.62 57.1998 118.52 57.3598C116.57 60.3998 114.62 63.4398 112.64 66.4598C112.39 66.8298 111.94 67.0698 111.74 67.2398V67.2298Z" fill="white"/>
<path d="M67.5701 125.58C67.3101 126.04 67.1701 126.4 66.9301 126.68C64.7601 129.25 62.5701 131.8 60.3801 134.35C59.7801 135.05 59.1101 135.16 58.5201 134.68C57.9301 134.2 57.8901 133.49 58.4701 132.81C60.6801 130.2 62.9101 127.61 65.1201 125.01C65.5101 124.55 66.0201 124.28 66.5601 124.56C66.9501 124.76 67.2101 125.2 67.5601 125.58H67.5701Z" fill="white"/>
<path d="M128.12 124.28C128.58 124.58 128.98 124.74 129.22 125.03C131.46 127.61 133.68 130.21 135.89 132.82C136.47 133.5 136.43 134.22 135.84 134.7C135.27 135.16 134.6 135.08 134.04 134.42C131.79 131.81 129.55 129.2 127.35 126.55C127.09 126.24 127.02 125.61 127.14 125.22C127.25 124.87 127.75 124.63 128.13 124.29L128.12 124.28Z" fill="white"/>
<path d="M63.16 91.5C63.13 92.62 62.27 93.21 61.46 92.81C59.45 91.81 57.46 90.76 55.5 89.68C54.9 89.35 54.74 88.75 55.07 88.11C55.4 87.48 56 87.24 56.6 87.54C58.63 88.55 60.64 89.61 62.63 90.71C62.93 90.88 63.07 91.34 63.17 91.49L63.16 91.5Z" fill="white"/>
<path d="M62.0799 106.85C62.3899 107.12 62.9299 107.37 63.0299 107.74C63.1399 108.15 62.9899 108.9 62.6899 109.1C60.8699 110.3 58.9799 111.41 57.0899 112.5C56.4699 112.85 55.9199 112.55 55.5699 111.96C55.2299 111.38 55.3999 110.74 56.0399 110.34C57.3599 109.51 58.6999 108.72 60.0299 107.91C60.3999 107.68 60.7699 107.45 61.1599 107.24C61.3999 107.11 61.6599 107.03 62.0899 106.86L62.0799 106.85Z" fill="white"/>
<path d="M132.22 106.83C132.7 107.02 132.99 107.1 133.25 107.25C134.87 108.21 136.49 109.19 138.09 110.17C138.94 110.69 139.17 111.33 138.78 111.99C138.38 112.67 137.66 112.78 136.79 112.26C135.15 111.28 133.51 110.28 131.88 109.3C131.32 108.96 131.02 108.44 131.28 107.85C131.46 107.44 131.92 107.15 132.23 106.83H132.22Z" fill="white"/>
<path d="M93.68 62.7301C93.34 63.0601 93.02 63.6001 92.6 63.7001C92.21 63.7901 91.44 63.5101 91.31 63.2001C90.7 61.6901 90.2 60.1301 89.76 58.5501C89.6 57.9701 90 57.4001 90.6 57.3501C91.04 57.3201 91.78 57.5201 91.91 57.8201C92.56 59.3501 93.05 60.9401 93.68 62.7201V62.7301Z" fill="white"/>
<path d="M102 63.7998C100.93 63.7998 100.31 63.0498 100.55 62.2798C100.97 60.8698 101.45 59.4698 101.95 58.0898C102.2 57.3898 102.83 57.1098 103.46 57.3298C104.17 57.5798 104.46 58.1398 104.26 58.8198C103.84 60.2298 103.39 61.6398 102.86 63.0098C102.71 63.3898 102.21 63.6398 102.02 63.7998H102Z" fill="white"/>
<path d="M72.86 118.94C72.89 119.96 70.59 122.77 69.85 122.77C69.45 122.77 68.9 122.53 68.7 122.21C68.5 121.9 68.48 121.24 68.69 120.94C69.33 120.03 70.06 119.17 70.86 118.39C71.12 118.14 71.75 118.05 72.12 118.18C72.48 118.3 72.72 118.78 72.86 118.94Z" fill="white"/>
<path d="M122.67 117.87C123.11 118.16 123.49 118.33 123.75 118.61C124.37 119.26 124.94 119.96 125.51 120.66C126.04 121.31 126.02 122.01 125.49 122.48C124.94 122.97 124.25 122.92 123.69 122.29C123.03 121.56 122.35 120.84 121.8 120.03C121.57 119.69 121.54 119.08 121.68 118.68C121.79 118.35 122.28 118.16 122.67 117.86V117.87Z" fill="white"/>
</svg>
