<svg width="194" height="194" viewBox="0 0 194 194" fill="none" xmlns="http://www.w3.org/2000/svg">
<circle cx="97" cy="97" r="97" fill="#BE9F31"/>
<g clip-path="url(#clip0_515_187354)">
<path d="M96.8401 112.78C97.4801 111.24 98.0901 109.77 98.7601 108.16C97.6601 107.08 96.4901 105.95 95.3301 104.79C94.2301 103.69 94.2401 102.95 95.3601 101.83C97.5201 99.6602 99.6801 97.5002 101.85 95.3402C102.95 94.2502 103.69 94.2602 104.81 95.3702C105.95 96.5002 107.07 97.6402 108.16 98.7402C109.58 98.1702 110.93 97.6602 112.25 97.0802C112.49 96.9702 112.73 96.5702 112.74 96.3002C112.79 94.8802 112.76 93.4602 112.77 92.0402C112.77 90.5102 113.28 89.9802 114.77 89.9802C117.9 89.9702 121.03 89.9702 124.17 89.9802C125.68 89.9802 126.11 90.4302 126.12 91.9502C126.13 93.3702 126.1 94.7902 126.14 96.2102C126.14 96.5002 126.35 96.9202 126.59 97.0302C127.94 97.6402 129.33 98.1602 130.84 98.7702C131.93 97.6502 133.06 96.4702 134.21 95.3202C135.25 94.2702 136.02 94.2802 137.09 95.3502C139.29 97.5302 141.48 99.7202 143.66 101.92C144.72 102.99 144.72 103.66 143.68 104.71C142.69 105.72 141.69 106.74 140.66 107.71C140.25 108.1 140.21 108.42 140.46 108.94C140.95 109.95 141.41 110.99 141.76 112.05C141.96 112.67 142.27 112.81 142.86 112.8C144.28 112.77 145.7 112.77 147.12 112.8C148.4 112.82 149 113.41 149.01 114.67C149.03 117.87 149.02 121.08 149.01 124.29C149.01 125.6 148.46 126.13 147.15 126.15C145.73 126.17 144.31 126.19 142.89 126.15C142.22 126.13 141.95 126.36 141.75 127C141.42 128.03 140.98 129.04 140.49 130.01C140.21 130.57 140.28 130.91 140.73 131.33C141.74 132.28 142.71 133.27 143.67 134.26C144.72 135.33 144.73 136.02 143.7 137.06C141.47 139.31 139.23 141.55 136.98 143.78C135.98 144.77 135.28 144.75 134.27 143.76C133.28 142.79 132.29 141.83 131.34 140.82C130.9 140.36 130.55 140.24 129.93 140.55C128.97 141.05 127.96 141.48 126.92 141.81C126.25 142.02 126.11 142.36 126.12 142.99C126.15 144.37 126.14 145.76 126.12 147.14C126.1 148.53 125.58 149.06 124.21 149.07C121.04 149.08 117.87 149.08 114.71 149.07C113.37 149.07 112.79 148.49 112.78 147.14C112.76 145.76 112.75 144.37 112.78 142.99C112.8 142.37 112.66 142.02 111.99 141.81C110.95 141.49 109.95 141.04 108.98 140.55C108.43 140.28 108.09 140.3 107.66 140.76C106.69 141.8 105.67 142.79 104.65 143.78C103.64 144.77 102.95 144.76 101.94 143.76C99.7201 141.55 97.5001 139.34 95.2901 137.12C94.2401 136.07 94.2601 135.32 95.3301 134.24C96.3001 133.26 97.2701 132.26 98.2701 131.31C98.6801 130.93 98.7501 130.63 98.4901 130.1C97.9801 129.06 97.5401 127.98 97.1501 126.89C96.9601 126.35 96.7001 126.16 96.1301 126.17C94.6701 126.2 93.2201 126.2 91.7601 126.17C90.4601 126.15 89.9601 125.68 89.9501 124.39C89.9301 121.15 89.9301 117.91 89.9501 114.67C89.9501 113.39 90.5401 112.84 91.8501 112.83C93.5201 112.81 95.1901 112.83 96.8301 112.83L96.8401 112.78ZM93.1401 115.92V123.04C94.7101 123.04 96.2001 123.07 97.6901 123.03C98.8201 123 99.3701 123.52 99.7401 124.57C100.37 126.34 101.09 128.09 101.9 129.79C102.4 130.83 102.37 131.62 101.51 132.42C100.41 133.45 99.3501 134.53 98.4501 135.42C100.2 137.17 101.83 138.81 103.53 140.51C104.43 139.59 105.42 138.58 106.42 137.57C107.57 136.42 107.85 136.44 109.28 137.13C110.74 137.84 112.24 138.51 113.78 139.03C115.74 139.69 115.91 139.82 115.91 141.96C115.91 143.25 115.91 144.54 115.91 145.84H123.02C123.02 144.27 123.05 142.78 123.01 141.29C122.98 140.17 123.47 139.59 124.52 139.21C126.29 138.58 128.03 137.85 129.74 137.07C131.02 136.48 131.39 136.46 132.43 137.51C133.47 138.56 134.49 139.63 135.43 140.6C137.21 138.83 138.85 137.19 140.55 135.49C139.55 134.51 138.51 133.44 137.42 132.42C136.57 131.63 136.5 130.86 137.02 129.8C137.85 128.11 138.55 126.36 139.18 124.59C139.55 123.55 140.1 123.02 141.23 123.05C142.75 123.09 144.27 123.06 145.8 123.06V115.94C144.25 115.94 142.8 115.94 141.35 115.94C139.93 115.93 139.65 115.62 139.16 114.3C138.54 112.6 137.85 110.92 137.08 109.29C136.43 107.92 136.41 107.6 137.49 106.51C138.54 105.47 139.59 104.43 140.49 103.55C138.72 101.78 137.09 100.14 135.42 98.4702C134.43 99.4702 133.34 100.54 132.28 101.64C131.53 102.43 130.77 102.41 129.82 101.97C128.15 101.19 126.44 100.47 124.71 99.8302C123.31 99.3202 123.01 99.0202 123.01 97.4602C123.01 96.0202 123.01 94.5802 123.01 93.1502H115.9C115.9 94.7002 115.88 96.1902 115.9 97.6702C115.92 98.8302 115.4 99.4302 114.3 99.8102C112.56 100.41 110.85 101.13 109.18 101.9C107.9 102.49 107.5 102.51 106.49 101.48C105.45 100.42 104.44 99.3202 103.51 98.3302C101.71 100.13 100.07 101.77 98.3501 103.49C99.3501 104.47 100.42 105.5 101.47 106.56C102.45 107.55 102.44 108 101.84 109.27C101.09 110.88 100.4 112.52 99.8101 114.19C99.2901 115.65 99.0301 115.93 97.4801 115.94C96.0301 115.94 94.5801 115.94 93.1201 115.94L93.1401 115.92Z" fill="white"/>
<path d="M85.91 95.2498C84.28 95.9298 82.81 96.5398 81.24 97.1998C81.24 98.7598 81.24 100.4 81.24 102.03C81.24 103.53 80.71 104.06 79.21 104.07C76.08 104.07 72.95 104.08 69.82 104.07C68.38 104.07 67.92 103.61 67.9 102.18C67.88 100.8 67.87 99.4098 67.9 98.0298C67.92 97.4098 67.77 97.0598 67.11 96.8298C65.84 96.3998 64.62 95.8498 63.21 95.2898C62.13 96.3898 60.96 97.5798 59.78 98.7498C58.76 99.7598 57.99 99.7598 56.98 98.7498C54.76 96.5398 52.54 94.3298 50.33 92.1098C49.29 91.0598 49.3 90.3798 50.35 89.3198C51.32 88.3298 52.29 87.3398 53.29 86.3898C53.72 85.9798 53.83 85.6498 53.54 85.0798C53.04 84.0798 52.6 83.0298 52.24 81.9698C52.05 81.4098 51.79 81.2298 51.23 81.2498C49.81 81.2798 48.39 81.2698 46.97 81.2498C45.56 81.2298 45 80.6598 45 79.2398C45 76.1098 45 72.9798 45 69.8398C45 68.4498 45.53 67.9098 46.89 67.8998C48.31 67.8798 49.73 67.8698 51.15 67.8998C51.75 67.9098 52.06 67.7498 52.24 67.1298C52.51 66.2298 52.82 65.3098 53.31 64.5198C53.9 63.5598 53.65 62.9898 52.89 62.3198C51.93 61.4798 51.06 60.5498 50.18 59.6198C49.34 58.7398 49.34 58.0098 50.18 57.1498C52.48 54.8198 54.8 52.4998 57.13 50.1998C57.99 49.3498 58.73 49.3498 59.6 50.1798C60.68 51.2098 61.74 52.2698 62.77 53.3498C63.16 53.7598 63.48 53.7998 64 53.5498C65.05 53.0498 66.16 52.6898 67.2 52.1798C67.5 52.0298 67.83 51.5898 67.84 51.2698C67.91 49.7798 67.85 48.2798 67.88 46.7898C67.9 45.5598 68.46 44.9998 69.7 44.9998C72.9 44.9798 76.11 44.9898 79.31 44.9998C80.64 44.9998 81.2 45.5998 81.22 46.9598C81.24 48.3798 81.24 49.7998 81.22 51.2198C81.21 51.7698 81.37 52.0498 81.93 52.2398C82.99 52.5998 84.04 53.0398 85.04 53.5398C85.61 53.8198 85.94 53.7398 86.35 53.2998C87.35 52.2398 88.39 51.2198 89.44 50.2098C90.32 49.3598 91.05 49.3298 91.91 50.1798C94.25 52.4798 96.56 54.7998 98.86 57.1298C99.7 57.9898 99.66 58.8098 98.8 59.6998C97.78 60.7398 96.76 61.7798 95.7 62.7798C95.28 63.1698 95.26 63.4798 95.5 63.9898C95.99 64.9998 96.44 66.0398 96.79 67.0998C97 67.7498 97.34 67.9198 97.97 67.8998C99.39 67.8598 100.81 67.8698 102.23 67.8998C103.52 67.9198 104.01 68.3998 104.02 69.6998C104.04 72.8998 104.04 76.1098 104.02 79.3098C104.02 80.6798 103.45 81.2298 102.1 81.2398C100.46 81.2598 98.83 81.2398 97.15 81.2398C96.52 82.7498 95.9 84.2398 95.22 85.8698C96.34 86.9598 97.52 88.0898 98.68 89.2498C99.73 90.2998 99.73 91.0898 98.68 92.1398C96.5 94.3398 94.31 96.5198 92.11 98.7098C91.06 99.7598 90.28 99.7598 89.23 98.7098C88.08 97.5498 86.96 96.3598 85.88 95.2398L85.91 95.2498ZM70.99 48.1698C70.99 49.7798 70.96 51.2798 71 52.7698C71.03 53.8898 70.53 54.4698 69.48 54.8398C67.71 55.4698 65.97 56.1998 64.26 56.9798C62.97 57.5698 62.63 57.5898 61.58 56.5398C60.54 55.4898 59.52 54.4198 58.62 53.4898C56.84 55.2698 55.2 56.8998 53.49 58.6198C54.49 59.5998 55.58 60.6798 56.68 61.7398C57.45 62.4798 57.49 63.2098 57.03 64.1798C56.21 65.9098 55.48 67.6898 54.83 69.4898C54.45 70.5298 53.89 71.0498 52.76 71.0198C51.24 70.9798 49.73 71.0098 48.17 71.0098V78.1298C49.74 78.1298 51.26 78.1498 52.78 78.1298C53.9 78.1098 54.47 78.6298 54.84 79.6798C55.43 81.3898 56.11 83.0698 56.88 84.7098C57.59 86.2098 57.63 86.4698 56.44 87.6598C55.42 88.6798 54.4 89.6898 53.52 90.5598C55.28 92.3198 56.92 93.9498 58.62 95.6398C59.53 94.7098 60.51 93.6898 61.51 92.6798C62.62 91.5598 62.99 91.5798 64.38 92.2298C65.98 92.9798 67.63 93.6498 69.3 94.2598C70.7 94.7598 71 95.0798 71 96.6298C71 98.0698 71 99.5098 71 100.94H78.11C78.11 99.3598 78.11 97.8298 78.11 96.3098C78.11 95.2698 78.56 94.6898 79.6 94.3398C81.38 93.7298 83.12 92.9898 84.82 92.1998C86.08 91.6198 86.51 91.5898 87.52 92.6098C88.56 93.6698 89.57 94.7598 90.53 95.7798C92.32 93.9898 93.95 92.3498 95.73 90.5698C94.66 89.5498 93.53 88.4598 92.4 87.3898C91.65 86.6898 91.63 85.9398 92.05 85.0298C92.84 83.2898 93.62 81.5298 94.25 79.7198C94.64 78.6098 95.24 78.1198 96.39 78.1498C97.88 78.1898 99.36 78.1498 100.89 78.1498V71.0298C99.37 71.0298 97.92 71.0298 96.48 71.0298C95.07 71.0298 94.75 70.7198 94.27 69.4298C93.61 67.6698 92.89 65.9198 92.09 64.2198C91.62 63.2198 91.66 62.4398 92.49 61.6798C93.61 60.6498 94.69 59.5898 95.67 58.6498C93.9 56.8798 92.26 55.2398 90.55 53.5298C89.63 54.4598 88.64 55.4598 87.64 56.4598C86.45 57.6398 86.17 57.6198 84.69 56.8998C83.16 56.1598 81.59 55.4898 79.98 54.9198C78.37 54.3598 78.11 54.1498 78.11 52.4698C78.11 51.0598 78.11 49.6498 78.11 48.1798H71L70.99 48.1698Z" fill="white"/>
<path d="M64.29 118.77C69.45 126.34 76.29 131.54 84.9 134.41C85.14 134.49 85.39 134.55 85.63 134.64C86.75 135.03 87.2 135.74 86.94 136.68C86.7 137.56 85.83 137.96 84.71 137.62C80.65 136.38 76.86 134.59 73.34 132.21C69.11 129.35 65.46 125.87 62.56 121.66C61.9 120.7 61.31 120.3 60.07 120.4C56.64 120.68 53.62 118.23 53.09 114.97C52.51 111.4 54.49 108.22 57.91 107.23C60.65 106.43 63.69 107.54 65.29 109.92C66.95 112.38 66.83 115.61 64.98 117.96C64.78 118.22 64.56 118.46 64.29 118.78V118.77ZM56.13 113.71C56.11 115.7 57.69 117.34 59.67 117.36C61.66 117.39 63.31 115.82 63.36 113.84C63.41 111.82 61.78 110.13 59.76 110.13C57.77 110.13 56.16 111.72 56.13 113.7V113.71Z" fill="white"/>
<path d="M132.47 73.7299C136.7 73.2099 139.65 74.8599 140.74 78.2999C141.71 81.3599 140.37 84.7099 137.56 86.2399C134.7 87.7999 131.16 87.1099 129.07 84.5799C127.28 82.4199 126.63 78.5799 129.7 75.2799C127.61 72.0799 125.07 69.2599 122.13 66.8099C118.08 63.4399 113.52 61.0199 108.51 59.4099C107.98 59.2399 107.35 58.8199 107.14 58.3499C106.96 57.9399 107.13 57.0699 107.46 56.8099C107.89 56.4699 108.73 56.2799 109.23 56.4599C111.65 57.3299 114.09 58.1999 116.39 59.3499C122.73 62.5299 127.87 67.1299 131.9 72.9599C132.08 73.2299 132.28 73.4899 132.46 73.7299H132.47ZM134.26 76.6799C132.27 76.6899 130.67 78.2999 130.67 80.2899C130.67 82.3099 132.34 83.9499 134.36 83.9099C136.34 83.8699 137.92 82.2399 137.9 80.2499C137.88 78.2699 136.25 76.6699 134.27 76.6899L134.26 76.6799Z" fill="white"/>
<path d="M119.48 132.76C112.11 132.75 106.17 126.78 106.2 119.39C106.22 112.11 112.21 106.21 119.57 106.22C126.76 106.22 132.8 112.31 132.75 119.48C132.7 126.85 126.78 132.77 119.49 132.76H119.48ZM129.6 119.55C129.63 113.89 125.07 109.3 119.45 109.32C113.89 109.34 109.32 113.92 109.3 119.48C109.28 125 113.83 129.6 119.33 129.62C125.06 129.64 129.58 125.21 129.61 119.55H129.6Z" fill="white"/>
<path d="M61.2999 75.1101C60.7999 68.0401 66.4399 61.8601 73.8799 61.3201C80.8699 60.8101 87.2899 66.4601 87.7999 73.5601C88.3199 80.8401 82.7899 87.2801 75.5399 87.8101C68.0799 88.3601 61.8399 82.7901 61.2899 75.1101H61.2999ZM74.5699 64.4301C68.9299 64.4201 64.4299 68.8901 64.4199 74.5101C64.4099 80.1301 68.9199 84.7201 74.4699 84.7301C80.0999 84.7301 84.6699 80.2001 84.7199 74.5501C84.7699 69.0201 80.1799 64.4401 74.5699 64.4301Z" fill="white"/>
</g>
<defs>
<clipPath id="clip0_515_187354">
<rect width="104.02" height="104.04" fill="white" transform="translate(45 45)"/>
</clipPath>
</defs>
</svg>
