<svg width="194" height="194" viewBox="0 0 194 194" fill="none" xmlns="http://www.w3.org/2000/svg">
<circle cx="97" cy="97" r="97" fill="#BE9F31"/>
<g clip-path="url(#clip0_515_187352)">
<path d="M129.15 142.2C130.73 142.2 132.17 142.22 133.61 142.2C134.45 142.18 135.04 142.46 135.14 143.34C135.23 144.08 134.6 144.56 133.6 144.56C123.92 144.56 114.25 144.56 104.57 144.56C89.76 144.56 74.95 144.56 60.15 144.56C59.92 144.56 59.69 144.56 59.46 144.56C58.54 144.54 57.93 144.07 58.01 143.35C58.1 142.54 58.6 142.18 59.43 142.2C60.9 142.23 62.37 142.2 64 142.2V141.04C64 133.29 64 125.54 64 117.8C64 116.3 64.32 115.97 65.84 115.97C68.78 115.97 71.72 115.97 74.67 115.97C76.2 115.97 76.55 116.34 76.55 117.89C76.55 125.57 76.55 133.26 76.55 140.94C76.55 141.32 76.55 141.71 76.55 142.15H81.5V140.97C81.5 129.43 81.5 117.89 81.5 106.35C81.5 104.58 81.75 104.33 83.54 104.33C86.45 104.33 89.36 104.33 92.27 104.33C93.83 104.33 94.07 104.58 94.07 106.17C94.07 117.74 94.07 129.32 94.07 140.89C94.07 141.28 94.07 141.67 94.07 142.13H99.1C99.1 141.78 99.1 141.43 99.1 141.09C99.1 136.74 99.1 132.39 99.1 128.05C99.1 126.44 99.39 126.15 100.96 126.15C103.9 126.15 106.84 126.15 109.79 126.15C111.27 126.15 111.66 126.54 111.66 127.99C111.66 132.34 111.66 136.69 111.66 141.03C111.66 141.38 111.66 141.74 111.66 142.15H116.61V141.1C116.61 135.02 116.61 128.94 116.61 122.86C116.61 121.29 116.91 120.98 118.5 120.98C121.47 120.98 124.45 120.98 127.42 120.98C128.86 120.98 129.15 121.27 129.15 122.69C129.15 128.8 129.15 134.92 129.15 141.03C129.15 141.38 129.15 141.74 129.15 142.21V142.2ZM91.61 142.17V106.75H84.02V142.17H91.61ZM66.43 118.46V142.12H74.06V118.46H66.43ZM119.09 123.4V142.12H126.74V123.4H119.09ZM101.54 128.62V142.15H109.13V128.62H101.54Z" fill="white"/>
<path d="M103.48 85.3501C103.09 84.8501 102.43 84.3801 102.38 83.8601C102.34 83.4001 102.99 82.8801 103.48 82.1601C103.28 81.1601 102.46 80.2401 101.48 79.3901C97.6999 76.1101 96.2199 71.9401 97.2199 67.0801C98.1999 62.2901 101.2 59.0601 105.86 57.5601C113.85 54.9801 122.17 61.0201 122.27 69.4201C122.32 73.5001 120.76 76.8401 117.66 79.4701C116.7 80.2901 115.92 81.2101 115.74 82.1601C116.24 82.8901 116.89 83.4201 116.84 83.8801C116.79 84.4101 116.13 84.8801 115.73 85.3701C115.65 85.3201 115.57 85.2701 115.49 85.2201C115.49 86.1001 115.47 86.9801 115.49 87.8601C115.52 89.4501 114.97 90.6901 113.55 91.5601C113.26 91.7301 113.16 92.3701 113.14 92.8001C113.04 95.1001 111.6 96.6101 109.5 96.5501C107.56 96.4901 106.16 95.0601 106.12 92.9701C106.1 92.1701 106.01 91.6001 105.2 91.1601C104.34 90.7001 103.85 89.8201 103.81 88.8101C103.76 87.6101 103.8 86.4001 103.8 85.2001C103.69 85.2501 103.59 85.3001 103.48 85.3501ZM113.15 82.5601C113.71 80.1601 114.28 79.3501 116.45 77.3201C119.62 74.3401 120.7 70.7001 119.37 66.5401C118.02 62.3501 114.98 59.9701 110.64 59.4301C106.28 58.8901 102.08 61.4001 100.24 65.4301C98.3999 69.4701 99.3099 74.2001 102.62 77.1701C104.29 78.6601 105.7 80.2501 106.04 82.5301H108.38C108.38 81.3101 108.35 80.1701 108.39 79.0301C108.42 78.4201 108.19 78.1901 107.62 78.0401C103.85 77.0601 101.37 74.0801 101.23 70.2301C101.1 66.7401 102.65 64.0601 105.71 62.4601C108.85 60.8101 112.01 61.1001 114.8 63.3001C117.53 65.4501 118.54 68.3701 117.77 71.7701C117.02 75.0801 114.87 77.1401 111.6 78.0701C111.31 78.1501 110.88 78.4301 110.87 78.6401C110.8 79.9301 110.84 81.2301 110.84 82.5701H113.15V82.5601ZM108.32 75.6401C108.44 74.7601 108.54 74.0501 107.45 73.5201C105.71 72.6801 104.96 70.6001 105.46 68.7401C105.95 66.9201 107.7 65.5801 109.6 65.5701C111.49 65.5601 113.25 66.8901 113.76 68.7101C114.27 70.5501 113.53 72.6601 111.81 73.5101C110.7 74.0601 110.76 74.7501 110.94 75.6701C113.9 75.1601 115.94 72.2301 115.59 69.1101C115.24 66.0001 112.51 63.7801 109.19 63.9001C106.26 64.0001 103.69 66.6101 103.62 69.5701C103.54 72.6401 105.66 75.3901 108.32 75.6501V75.6401ZM106.17 85.1101C106.17 86.2601 106.09 87.3801 106.22 88.4601C106.26 88.8201 106.85 89.3701 107.21 89.3901C108.8 89.4901 110.41 89.4901 112.01 89.3901C112.38 89.3701 112.96 88.8201 113.01 88.4601C113.14 87.3701 113.06 86.2601 113.06 85.1101H106.18H106.17ZM109.61 68.0101C108.56 68.0101 107.76 68.8001 107.74 69.8401C107.72 70.9201 108.56 71.7701 109.62 71.7701C110.65 71.7701 111.47 70.9601 111.49 69.9301C111.51 68.8401 110.7 68.0101 109.61 68.0201V68.0101ZM108.28 91.9401C108.57 92.7301 108.73 93.4001 109.08 93.9401C109.2 94.1201 110.07 94.1001 110.18 93.9201C110.52 93.3701 110.66 92.7001 110.92 91.9401H108.28Z" fill="white"/>
<path d="M100.29 105.8C97.1799 101.92 94.0899 98.0802 90.9999 94.2402C88.0299 95.5302 85.3799 95.1702 82.9699 92.9902C80.7999 94.4302 78.6399 95.8802 76.3999 97.3702C77.2099 99.4302 77.1299 101.45 76.0099 103.38C75.2099 104.76 74.0499 105.73 72.5599 106.29C69.5599 107.41 66.2199 106.23 64.5499 103.48C62.8999 100.76 63.4099 97.2002 65.7599 95.0802C67.7799 93.2602 71.4999 92.2201 75.0799 95.3502C76.1699 94.6302 77.2799 93.9001 78.3799 93.1701C79.4599 92.4501 80.5399 91.7201 81.5999 91.0101C80.5499 87.1101 81.6699 84.0302 84.6599 82.4402C87.3899 80.9902 90.7299 81.6002 92.7799 83.9202C94.9499 86.3702 94.9999 89.7102 92.8499 92.7202C95.9299 96.5602 99.0299 100.42 102.12 104.27C106.11 102.82 108.55 103.51 111.05 106.71C111.2 106.9 111.6 107.05 111.83 106.99C113.12 106.66 114.41 106.29 115.67 105.85C115.91 105.76 116.16 105.3 116.17 104.99C116.3 101.6 118.5 99.0002 121.79 98.4102C125.27 97.7802 128.58 100.03 129.41 103.59C130.18 106.86 128.12 110.37 124.84 111.37C122.02 112.23 119.05 111.2 117.36 108.69C117.01 108.17 116.73 108.01 116.11 108.23C115.04 108.61 113.94 108.93 112.83 109.21C112.23 109.36 112.02 109.6 112 110.26C111.94 113.71 109.38 116.47 105.95 116.86C102.74 117.23 99.6099 114.99 98.8399 111.69C98.3399 109.53 98.8499 107.55 100.27 105.81L100.29 105.8ZM65.9699 99.9802C65.9499 102.32 67.9099 104.3 70.2399 104.32C72.5699 104.33 74.5399 102.35 74.5299 100.01C74.5199 97.6902 72.6399 95.7802 70.3199 95.7302C68.0099 95.6802 65.9999 97.6602 65.9799 99.9902L65.9699 99.9802ZM122.85 109.25C125.22 109.26 127.16 107.36 127.17 105C127.18 102.64 125.26 100.73 122.88 100.73C120.52 100.73 118.67 102.55 118.61 104.91C118.56 107.25 120.49 109.23 122.84 109.24L122.85 109.25ZM87.8099 92.5802C90.1999 92.5802 92.0899 90.6702 92.0699 88.2702C92.0499 85.9302 90.1599 84.0802 87.7899 84.0802C85.4099 84.0802 83.5599 85.9102 83.5399 88.2902C83.5199 90.6902 85.3999 92.5902 87.7999 92.5802H87.8099ZM109.6 110.14C109.57 107.76 107.64 105.86 105.28 105.9C102.93 105.94 101.05 107.89 101.08 110.27C101.11 112.57 103.05 114.47 105.36 114.46C107.74 114.45 109.63 112.53 109.6 110.14Z" fill="white"/>
<path d="M110.83 52.41C110.83 52.83 110.87 53.26 110.83 53.68C110.74 54.37 110.36 54.86 109.63 54.86C108.91 54.86 108.48 54.39 108.42 53.7C108.36 52.86 108.36 52.01 108.42 51.17C108.47 50.49 108.85 50 109.61 50C110.37 50 110.73 50.47 110.82 51.15C110.88 51.56 110.83 51.99 110.83 52.42V52.41Z" fill="white"/>
<path d="M99.5598 58.5298C99.3698 58.7698 99.1698 59.2198 98.8498 59.3498C98.4898 59.4898 97.8898 59.4898 97.6098 59.2798C96.8698 58.6998 96.1798 58.0398 95.6298 57.2798C95.3998 56.9598 95.4098 56.1998 95.6498 55.8898C95.8798 55.5898 96.7298 55.3498 96.9698 55.5398C97.8598 56.2198 98.6098 57.0898 99.3898 57.8998C99.4898 57.9998 99.4798 58.1998 99.5598 58.5298Z" fill="white"/>
<path d="M123.99 56.48C123.8 56.89 123.71 57.22 123.51 57.44C122.97 58.04 122.39 58.61 121.79 59.17C121.23 59.69 120.61 59.73 120.07 59.17C119.57 58.64 119.59 58.05 120.09 57.52C120.67 56.91 121.23 56.25 121.9 55.76C122.22 55.52 122.83 55.47 123.23 55.59C123.54 55.68 123.73 56.17 123.98 56.49L123.99 56.48Z" fill="white"/>
<path d="M92.3102 70.8399C91.8902 70.8399 91.4602 70.8599 91.0402 70.8399C90.3602 70.7899 89.8502 70.3399 89.9702 69.7199C90.0602 69.2599 90.5602 68.6199 90.9802 68.5399C91.8902 68.3599 92.8602 68.4199 93.7902 68.5099C94.4302 68.5699 94.8302 69.0399 94.7902 69.7299C94.7502 70.4199 94.3402 70.7899 93.6702 70.8399C93.2202 70.8699 92.7602 70.8399 92.3102 70.8399Z" fill="white"/>
<path d="M126.83 70.8401C126.41 70.8401 125.98 70.8701 125.56 70.8401C124.89 70.7901 124.47 70.4201 124.43 69.7301C124.39 68.9901 124.83 68.5401 125.52 68.4901C126.42 68.4201 127.36 68.3501 128.23 68.5301C128.65 68.6201 129.15 69.2501 129.24 69.7101C129.36 70.3301 128.86 70.7801 128.17 70.8301C127.72 70.8601 127.26 70.8301 126.81 70.8301L126.83 70.8401Z" fill="white"/>
</g>
<defs>
<clipPath id="clip0_515_187352">
<rect width="77.14" height="94.55" fill="white" transform="translate(58 50)"/>
</clipPath>
</defs>
</svg>
