<svg width="194" height="194" viewBox="0 0 194 194" fill="none" xmlns="http://www.w3.org/2000/svg">
<circle cx="97" cy="97" r="97" fill="#BE9F31"/>
<path d="M103.42 87.6902C100.92 90.0702 99.6 93.0002 99.11 96.3302C98.53 100.31 98.93 104.27 99.39 108.23C99.55 109.6 99.72 110.97 99.85 112.34C99.95 113.41 99.44 114.14 98.56 114.27C97.58 114.41 96.88 113.9 96.76 112.75C96.42 109.5 96.07 106.24 95.86 102.98C95.64 99.4902 95.67 95.9902 95.44 92.5002C95.28 90.0002 94.3 87.7102 93.01 85.5802C92.86 85.3402 92.31 85.1602 92 85.2202C84.85 86.4602 78.65 84.5502 73.74 79.2402C68.96 74.0802 67.53 67.8902 69.07 61.0202C69.25 60.2102 69.76 59.7602 70.55 59.5602C81.89 56.6502 93.33 64.3802 94.85 76.0502C95.08 77.8102 95 79.6402 94.85 81.4102C94.73 82.6802 95.55 83.3602 96.01 84.4002C96.54 81.6002 96.95 78.9502 97.55 76.3502C98.02 74.3302 98.73 72.3702 99.29 70.3702C99.41 69.9402 99.45 69.4202 99.31 69.0102C96.58 60.8302 101.59 52.7002 110.16 51.5002C110.98 51.3902 111.83 51.4302 112.66 51.4602C113.47 51.4902 113.88 52.0202 114.19 52.7202C117.46 60.0402 113.28 68.7002 105.49 70.7002C104.87 70.8602 104.22 71.1002 103.61 71.0402C102.51 70.9302 102.23 71.5202 101.93 72.3902C100.46 76.6502 99.61 81.0402 98.99 88.0902C99.77 87.1902 100.39 86.3302 101.16 85.6302C101.92 84.9402 102.23 84.1402 102.41 83.1602C103.93 74.9502 110.84 68.4902 119.12 67.4202C123.78 66.8202 128.1 67.7602 132.13 70.1602C132.9 70.6202 133.26 71.1902 133.21 72.1202C132.75 79.8302 127.33 87.4702 118.79 89.7902C113.63 91.1902 108.7 90.5502 104 88.0302C103.81 87.9302 103.61 87.8302 103.4 87.7302L103.42 87.6902ZM106.11 81.6002C106.51 81.3902 106.68 81.3102 106.85 81.2202C110.1 79.3602 113.56 78.0602 117.24 77.3702C117.74 77.2802 118.5 77.5302 118.83 77.9002C119.14 78.2402 119.27 79.1102 119.04 79.4602C118.72 79.9502 118.03 80.3402 117.44 80.4702C114.16 81.1702 111.05 82.3002 108.15 84.0002C107.42 84.4302 106.74 84.9202 105.91 85.4602C109.66 87.3102 113.39 87.7702 117.28 86.9202C123.7 85.5302 128.9 80.0302 129.94 73.5602C130.05 72.8502 129.94 72.4002 129.2 72.0602C123.45 69.4502 117.87 69.7202 112.56 73.1602C109.51 75.1302 107.44 77.9302 106.11 81.6102V81.6002ZM91.93 78.4802C91.69 67.1502 81.28 60.3502 72 62.5202C69.53 74.3602 79.99 84.1202 90.62 82.1602C90.61 82.1002 90.62 82.0302 90.58 81.9802C90.42 81.7802 90.26 81.5802 90.09 81.3902C87.5 78.3802 84.48 75.8602 81.13 73.7202C80.22 73.1302 79.99 72.2902 80.46 71.5102C80.95 70.6902 81.87 70.4802 82.79 71.0902C84.15 71.9902 85.52 72.8902 86.78 73.9302C88.53 75.3702 90.18 76.9302 91.93 78.4902V78.4802ZM103.97 67.7402C110.37 66.7602 113.75 59.7302 111.49 54.5602C106.07 54.4802 100.15 60.8202 101.93 64.8602C102.09 64.6002 102.22 64.3302 102.4 64.1202C103.51 62.8002 104.58 61.4402 105.8 60.2302C106.16 59.8802 107.02 59.7302 107.52 59.8902C108.71 60.2702 108.8 61.6802 107.77 62.5802C106.13 64.0102 104.99 65.7902 103.96 67.7402H103.97Z" fill="white"/>
<path d="M138.42 103.84C138.42 106.15 138.42 108.46 138.42 110.78C138.41 113.3 136.48 115.22 133.95 115.2C132.83 115.19 131.71 115.08 130.59 115C129.89 114.95 129.43 115.25 129.16 115.89C128.99 116.31 128.79 116.71 128.64 117.13C128.41 117.8 128.52 118.38 129.09 118.86C129.81 119.45 130.52 120.06 131.22 120.67C133.36 122.57 133.51 125.35 131.52 127.38C128.32 130.63 125.09 133.85 121.85 137.05C119.9 138.97 117.12 138.85 115.28 136.82C114.63 136.11 114.01 135.37 113.4 134.63C112.9 134.02 112.3 133.9 111.59 134.17C111.2 134.32 110.83 134.51 110.44 134.65C109.74 134.91 109.45 135.4 109.5 136.14C109.58 137.26 109.69 138.38 109.7 139.5C109.72 141.97 107.79 143.91 105.33 143.92C100.67 143.93 96.0199 143.93 91.3599 143.92C88.8999 143.92 86.9799 141.96 86.9999 139.49C86.9999 138.37 87.1199 137.25 87.1999 136.13C87.2599 135.38 86.9399 134.91 86.2599 134.64C85.8699 134.49 85.4999 134.31 85.1099 134.16C84.3999 133.9 83.7999 134.02 83.3099 134.64C82.7299 135.36 82.1199 136.07 81.4999 136.76C79.6299 138.85 76.8499 139 74.8599 137.04C71.5899 133.82 68.3399 130.57 65.1199 127.3C63.2399 125.39 63.3699 122.61 65.3599 120.8C66.0699 120.15 66.8099 119.53 67.5499 118.92C68.1899 118.4 68.2999 117.78 68.0299 117.03C67.2899 114.99 67.1199 114.87 64.9499 115.04C64.1799 115.1 63.4099 115.2 62.6499 115.2C60.2399 115.2 58.2999 113.27 58.2899 110.86C58.2699 106.17 58.2699 101.48 58.2899 96.7898C58.2899 94.4298 60.2299 92.4898 62.5799 92.4898C63.7299 92.4898 64.8899 92.5898 66.0399 92.6898C67.4399 92.8098 67.5499 91.6698 67.9599 90.7998C68.3299 89.9998 68.2499 89.3298 67.5399 88.7498C66.7399 88.0998 65.9499 87.4398 65.2099 86.7298C63.5099 85.1098 63.3599 82.4898 64.8199 80.7098C65.5099 79.8598 66.4399 79.6898 67.1799 80.2698C67.8799 80.8198 67.9399 81.6798 67.3399 82.5798C66.7599 83.4398 66.8199 83.9798 67.5999 84.6698C68.2999 85.2898 69.0199 85.8698 69.7199 86.4898C71.3099 87.8998 71.7699 89.7498 70.9999 91.7098C70.7699 92.3098 70.5299 92.9098 70.2299 93.4698C69.3499 95.0898 67.9499 95.8598 66.1299 95.8298C65.1399 95.8198 64.1499 95.6898 63.1599 95.5998C62.0399 95.4998 61.4099 95.9998 61.4099 97.1098C61.3899 101.57 61.3899 106.04 61.4099 110.5C61.4099 111.66 62.0399 112.13 63.2199 112.05C64.4999 111.97 65.7699 111.95 67.0499 111.91C67.1799 111.91 67.3099 111.92 67.4299 111.95C69.7999 112.56 70.5599 114.54 71.1899 116.55C71.7299 118.27 71.1699 119.78 69.8899 121.01C69.1499 121.72 68.3299 122.34 67.5599 123.03C66.7699 123.74 66.7199 124.44 67.4599 125.19C70.6499 128.4 73.8499 131.61 77.0699 134.79C77.7799 135.49 78.4799 135.44 79.1599 134.69C79.8099 133.98 80.4099 133.23 81.0499 132.5C82.4399 130.91 84.3099 130.44 86.2699 131.21C86.8699 131.44 87.4699 131.68 88.0299 131.98C89.6499 132.85 90.4199 134.26 90.3999 136.08C90.3899 137.07 90.2599 138.06 90.1699 139.05C90.0699 140.2 90.5899 140.81 91.7699 140.81C96.1999 140.82 100.63 140.82 105.06 140.81C106.22 140.81 106.7 140.18 106.62 139C106.54 137.72 106.52 136.44 106.47 135.17C106.47 135.04 106.48 134.91 106.51 134.79C107.12 132.42 109.09 131.65 111.1 131.02C112.86 130.47 114.39 131.06 115.62 132.38C116.3 133.11 116.91 133.9 117.58 134.64C118.3 135.43 118.99 135.49 119.73 134.75C122.95 131.56 126.15 128.36 129.33 125.14C130.04 124.43 129.99 123.74 129.25 123.05C128.66 122.5 128.04 121.99 127.43 121.48C125.29 119.66 124.9 118.03 125.98 115.42C126.14 115.04 126.3 114.65 126.48 114.28C127.33 112.6 129.04 111.66 130.91 111.83C131.87 111.92 132.83 111.99 133.79 112.05C134.73 112.11 135.36 111.59 135.36 110.64C135.38 106.08 135.38 101.52 135.36 96.9598C135.36 96.0198 134.71 95.5098 133.77 95.5698C132.84 95.6298 131.91 95.7198 130.99 95.7798C129.9 95.8498 129.15 95.2698 129.09 94.3298C129.03 93.4698 129.73 92.7398 130.73 92.6598C131.85 92.5698 132.97 92.4598 134.09 92.4598C136.5 92.4498 138.44 94.3798 138.46 96.7798C138.48 99.1198 138.46 101.47 138.46 103.81L138.42 103.84Z" fill="white"/>
<path d="M72.3 103.79C72.47 98.0801 74.17 92.9401 77.55 88.3501C78 87.7401 78.56 87.2401 79.32 87.5001C79.77 87.6601 80.34 88.1001 80.44 88.5201C80.55 89.0201 80.38 89.7401 80.06 90.1701C77.97 93.0801 76.6 96.2701 75.91 99.7901C73.66 111.31 81.37 123.25 92.87 125.96C105.12 128.85 117.11 121.72 120.36 109.59C121.57 105.07 121.36 100.58 119.79 96.1701C119.26 94.6901 119.46 93.8201 120.42 93.4501C121.45 93.0501 122.2 93.5801 122.75 95.0901C128.16 109.96 118.68 126.47 103.12 129.29C89.17 131.81 76.05 123.1 72.99 109.22C72.6 107.45 72.52 105.6 72.29 103.79H72.3Z" fill="white"/>
</svg>
