<svg width="270" height="270" viewBox="0 0 270 270" fill="none" xmlns="http://www.w3.org/2000/svg">
<path d="M158.885 191.715C160.99 176.352 174.037 161.2 178.246 156.992C203.289 132.791 203.92 93.0165 179.719 67.9737C155.518 42.9308 115.534 42.2995 90.4908 66.5006C65.4479 90.7017 64.8166 130.686 89.0177 155.729L90.4908 157.202C94.6997 161.2 107.747 176.352 109.852 191.925C110.273 196.555 110.693 201.185 110.483 205.604H158.043C158.254 200.974 158.464 196.345 158.885 191.715Z" fill="#FFD85A"/>
<path d="M158.254 209.813H110.483C109.431 209.813 108.379 209.392 107.537 208.55C106.695 207.709 106.275 206.656 106.275 205.604C106.275 201.185 106.064 196.765 105.643 192.346C103.749 178.667 91.9643 164.568 87.545 160.148L86.0719 158.675C73.4452 145.838 66.711 128.792 67.1319 110.694C67.5528 92.5956 74.7079 75.9705 87.545 63.3438C100.382 50.7172 117.428 43.983 135.526 44.4039C153.414 44.6143 170.25 51.9798 182.876 64.8169C195.503 77.654 202.237 94.7 201.816 112.798C201.606 130.686 194.24 147.522 181.403 160.148C177.194 164.147 165.199 178.457 163.305 192.346C162.884 196.765 162.463 201.185 162.674 205.604C162.674 206.656 162.253 207.709 161.411 208.55C160.359 209.392 159.306 209.813 158.254 209.813ZM114.692 201.395H154.045C154.045 198.028 154.466 194.661 154.677 191.294C157.412 171.723 175.09 154.466 175.3 154.256C186.664 143.313 192.978 128.582 193.188 112.798C193.398 97.0149 187.506 82.0734 176.563 70.9198C165.62 59.5558 150.889 53.2425 135.105 53.0321C119.533 52.6112 104.591 58.5036 93.4374 69.4467C82.0734 80.3898 75.7601 95.1209 75.5497 110.904C75.3392 126.688 81.2316 141.629 92.1747 152.783L93.4374 154.045C93.6479 154.256 111.325 171.723 114.061 191.084C114.482 194.661 114.692 198.028 114.692 201.395Z" fill="#15254C"/>
<path d="M134.473 270H134.053C117.638 268.527 105.432 254.427 106.063 238.012C106.063 233.172 106.063 228.121 106.274 223.281C106.274 217.389 106.484 211.075 106.484 205.604C106.484 204.552 106.905 203.499 107.747 202.658C108.589 201.816 109.641 201.395 110.693 201.395H158.464C159.516 201.395 160.569 201.816 161.41 202.658C162.252 203.499 162.673 204.552 162.673 205.604C162.673 210.865 162.673 216.968 162.883 222.86C162.883 227.911 163.094 233.172 163.094 238.012C163.725 254.427 151.519 268.527 134.894 270H134.473ZM114.692 209.813C114.692 214.232 114.692 218.862 114.481 223.281C114.481 228.332 114.271 233.383 114.271 238.012V238.223C113.85 250.008 122.478 260.109 134.263 261.582C146.048 260.319 154.887 250.218 154.255 238.223C154.255 233.172 154.255 228.121 154.045 223.071C154.045 218.651 153.834 214.022 153.834 209.813H114.692Z" fill="#15254C"/>
<path d="M167.093 209.813H99.7509C97.436 209.813 95.542 207.919 95.542 205.604C95.542 203.289 97.436 201.395 99.7509 201.395H167.093C169.408 201.395 171.302 203.289 171.302 205.604C171.302 207.919 169.408 209.813 167.093 209.813ZM158.675 227.069H110.273C107.958 227.069 106.064 225.175 106.064 222.86C106.064 220.545 107.958 218.651 110.273 218.651H158.675C160.99 218.651 162.884 220.545 162.884 222.86C162.884 225.175 160.99 227.069 158.675 227.069ZM158.675 242.432H110.273C107.958 242.432 106.064 240.538 106.064 238.223C106.064 235.908 107.958 234.014 110.273 234.014H158.675C160.99 234.014 162.884 235.908 162.884 238.223C162.884 240.538 160.99 242.432 158.675 242.432Z" fill="#15254C"/>
<path d="M126.266 209.813C123.951 209.813 122.057 207.919 122.057 205.604C122.057 205.183 121.426 167.514 121.426 150.468H120.374C115.113 150.468 111.325 148.995 108.799 146.259C106.484 143.944 105.432 140.577 105.643 136.578C105.853 133.211 107.537 125.635 118.901 125.635C122.268 125.635 125.003 126.477 126.687 128.371C129.844 131.528 129.844 136.157 129.633 141.629V141.839H138.051V138.893C138.051 130.475 142.891 125.846 151.519 125.846C155.097 125.846 158.043 127.319 160.148 129.844C161.831 131.949 162.883 134.895 162.883 137.841C162.883 144.154 158.675 150.678 151.099 150.678H146.469V205.604C146.469 207.919 144.575 209.813 142.26 209.813C139.945 209.813 138.051 207.919 138.051 205.604V150.678H129.633C129.844 167.514 130.265 205.183 130.265 205.604C130.475 207.919 128.791 209.813 126.266 209.813ZM146.679 142.26H151.309C154.045 142.26 154.676 139.104 154.676 137.841C154.676 136.789 154.466 135.737 153.834 135.105C153.624 134.684 152.993 134.263 151.73 134.263C147.311 134.263 146.679 135.316 146.679 138.893V142.26ZM118.901 134.263C114.271 134.263 114.271 135.737 114.06 137.42C114.06 138.893 114.271 140.156 114.902 140.787C115.744 141.629 117.848 142.26 120.374 142.26H121.426V142.05C121.426 139.314 121.426 135.316 120.795 134.684C120.584 134.474 120.163 134.263 118.901 134.263ZM87.7548 114.903C85.4399 114.903 83.5459 113.009 83.5459 110.694C83.5459 84.5986 105.011 63.1333 131.317 63.1333C133.632 63.1333 135.526 65.0273 135.526 67.3422C135.526 69.6571 133.632 71.5511 131.317 71.5511C109.641 71.5511 91.9637 89.2284 91.9637 110.694C91.9637 113.009 90.0697 114.903 87.7548 114.903ZM40.4048 117.217H26.0946C23.7797 117.217 21.8857 115.323 21.8857 113.009C21.8857 110.694 23.7797 108.8 26.0946 108.8H40.4048C42.7197 108.8 44.6137 110.694 44.6137 113.009C44.6137 115.323 42.7197 117.217 40.4048 117.217ZM243.904 117.217H229.594C227.279 117.217 225.385 115.323 225.385 113.009C225.385 110.694 227.279 108.8 229.594 108.8H243.904C246.219 108.8 248.113 110.694 248.113 113.009C248.113 115.323 246.219 117.217 243.904 117.217ZM135.105 22.5175C132.79 22.5175 130.896 20.6235 130.896 18.3087V4.20889C130.896 1.894 132.79 0 135.105 0C137.42 0 139.314 1.894 139.314 4.20889V18.5191C139.314 20.834 137.42 22.5175 135.105 22.5175Z" fill="#15254C"/>
<path d="M61.8708 54.084C60.8185 54.084 59.7663 53.6631 58.9245 52.8214L48.8232 42.72C47.1397 41.0365 47.1397 38.5112 48.8232 36.8276C50.5068 35.1441 53.0321 35.1441 54.7157 36.8276L64.817 46.9289C66.5005 48.6125 66.5005 51.1378 64.817 52.8214C63.9752 53.6631 62.923 54.084 61.8708 54.084Z" fill="#15254C"/>
<path d="M206.025 54.084C204.973 54.084 203.921 53.6631 203.079 52.8214C201.396 51.1378 201.396 48.6125 203.079 46.9289L213.18 36.8276C214.864 35.1441 217.389 35.1441 219.073 36.8276C220.756 38.5112 220.756 41.0365 219.073 42.72L208.972 52.8214C208.13 53.6631 207.078 54.084 206.025 54.084Z" fill="#15254C"/>
</svg>
