<svg width="270" height="270" viewBox="0 0 270 270" fill="none" xmlns="http://www.w3.org/2000/svg">
<circle cx="135.5" cy="133.5" r="40.5" fill="#FFD85A"/>
<path d="M206.025 54.084C204.973 54.084 203.921 53.6631 203.079 52.8214C201.396 51.1378 201.396 48.6125 203.079 46.9289L213.18 36.8276C214.864 35.1441 217.389 35.1441 219.073 36.8276C220.756 38.5112 220.756 41.0365 219.073 42.72L208.972 52.8214C208.13 53.6631 207.078 54.084 206.025 54.084Z" fill="#15254C"/>
<path d="M201 36L179 58V91H212L234 69L212 58L201 36Z" fill="#15254C"/>
<path d="M135 135L179 91M179 91V58L201 36L212 58L234 69L212 91H179Z" stroke="#15254C" stroke-width="10" stroke-linecap="round" stroke-linejoin="round"/>
<path d="M234 135C234 154.58 228.194 173.721 217.315 190.001C206.437 206.282 190.976 218.971 172.886 226.464C154.796 233.957 134.89 235.918 115.686 232.098C96.482 228.278 78.8419 218.849 64.9965 205.004C51.1511 191.158 41.7222 173.518 37.9023 154.314C34.0824 135.11 36.0429 115.204 43.536 97.1143C51.029 79.0244 63.7181 63.5628 79.9986 52.6845C96.279 41.8062 115.42 36 135 36" stroke="#15254C" stroke-width="10" stroke-linecap="round" stroke-linejoin="round"/>
<path d="M178.999 135C178.999 143.703 176.418 152.21 171.584 159.446C166.749 166.681 159.877 172.321 151.837 175.651C143.797 178.981 134.95 179.853 126.415 178.155C117.88 176.457 110.04 172.267 103.886 166.113C97.7328 159.96 93.5422 152.12 91.8445 143.584C90.1467 135.049 91.0181 126.202 94.3483 118.162C97.6786 110.122 103.318 103.251 110.554 98.4158C117.79 93.581 126.297 91.0005 134.999 91.0005" stroke="#15254C" stroke-width="10" stroke-linecap="round" stroke-linejoin="round"/>
</svg>
